<svg width="20" height="20" viewBox="0 0 20 20" fill="none" xmlns="http://www.w3.org/2000/svg">
<path d="M6.05263 0C2.71915 0 0 2.71915 0 6.05263V13.9474C0 17.2804 2.71906 20 6.05263 20H13.9474C17.2805 20 20 17.2805 20 13.9474V6.05263C20 2.71906 17.2804 0 13.9474 0H6.05263ZM6.05263 1.57895H13.9474C16.427 1.57895 18.4211 3.57252 18.4211 6.05263V13.9474C18.4211 16.4269 16.4269 18.4211 13.9474 18.4211H6.05263C3.57252 18.4211 1.57895 16.427 1.57895 13.9474V6.05263C1.57895 3.57243 3.57243 1.57895 6.05263 1.57895ZM15.2632 3.68421C14.6816 3.68421 14.2105 4.15526 14.2105 4.73684C14.2105 5.31842 14.6816 5.78947 15.2632 5.78947C15.8447 5.78947 16.3158 5.31842 16.3158 4.73684C16.3158 4.15526 15.8447 3.68421 15.2632 3.68421ZM10 4.73684C7.10273 4.73684 4.73684 7.10273 4.73684 10C4.73684 12.8973 7.10273 15.2632 10 15.2632C12.8973 15.2632 15.2632 12.8973 15.2632 10C15.2632 7.10273 12.8973 4.73684 10 4.73684ZM10 6.31579C12.0438 6.31579 13.6842 7.95622 13.6842 10C13.6842 12.0438 12.0438 13.6842 10 13.6842C7.95622 13.6842 6.31579 12.0438 6.31579 10C6.31579 7.95622 7.95622 6.31579 10 6.31579Z" fill="white"/>
</svg>
